<svg width="151" height="93" viewBox="0 0 151 93" fill="none" xmlns="http://www.w3.org/2000/svg">
<path d="M26.925 74.744H0.0450001V61.944L25.645 1.39999H41.005V61.944H47.661V74.744H41.005V91H26.925V74.744ZM26.925 61.944V27H26.669L12.845 61.944H26.925ZM74.975 92.28C68.063 92.28 62.7723 90.3173 59.103 86.392C55.4337 82.4667 53.599 76.92 53.599 69.752V22.648C53.599 15.48 55.4337 9.93333 59.103 6.008C62.7723 2.08266 68.063 0.119995 74.975 0.119995C81.887 0.119995 87.1777 2.08266 90.847 6.008C94.5163 9.93333 96.351 15.48 96.351 22.648V69.752C96.351 76.92 94.5163 82.4667 90.847 86.392C87.1777 90.3173 81.887 92.28 74.975 92.28ZM74.975 79.48C79.839 79.48 82.271 76.536 82.271 70.648V21.752C82.271 15.864 79.839 12.92 74.975 12.92C70.111 12.92 67.679 15.864 67.679 21.752V70.648C67.679 76.536 70.111 79.48 74.975 79.48ZM129.425 74.744H102.545V61.944L128.145 1.39999H143.505V61.944H150.161V74.744H143.505V91H129.425V74.744ZM129.425 61.944V27H129.169L115.345 61.944H129.425Z" fill="#3B4252"/>
</svg>
