<svg width="211" height="322" viewBox="0 0 211 322" fill="none" xmlns="http://www.w3.org/2000/svg">
<path d="M0.248 232.4H20.344L29.304 296.528H29.56L38.52 232.4H58.616V322H45.304V254.16H45.048L34.808 322H23.032L12.792 254.16H12.536V322H0.248V232.4ZM69.123 232.4H83.203V322H69.123V232.4ZM93.748 232.4H114.612C121.865 232.4 127.156 234.107 130.484 237.52C133.812 240.848 135.476 246.011 135.476 253.008V258.512C135.476 267.813 132.404 273.701 126.26 276.176V276.432C129.673 277.456 132.063 279.547 133.428 282.704C134.879 285.861 135.604 290.085 135.604 295.376V311.12C135.604 313.68 135.689 315.771 135.86 317.392C136.031 318.928 136.457 320.464 137.14 322H122.804C122.292 320.549 121.951 319.184 121.78 317.904C121.609 316.624 121.524 314.32 121.524 310.992V294.608C121.524 290.512 120.841 287.653 119.476 286.032C118.196 284.411 115.935 283.6 112.692 283.6H107.828V322H93.748V232.4ZM112.948 270.8C115.764 270.8 117.855 270.075 119.22 268.624C120.671 267.173 121.396 264.741 121.396 261.328V254.416C121.396 251.173 120.799 248.827 119.604 247.376C118.495 245.925 116.703 245.2 114.228 245.2H107.828V270.8H112.948ZM156.253 232.4H175.325L189.917 322H175.837L173.277 304.208V304.464H157.277L154.717 322H141.661L156.253 232.4ZM171.613 292.304L165.341 248.016H165.085L158.941 292.304H171.613ZM196.748 232.4H210.828V322H196.748V232.4Z" fill="#313244"/>
<path opacity="0.8" d="M0.248 192.4H20.344L29.304 256.528H29.56L38.52 192.4H58.616V282H45.304V214.16H45.048L34.808 282H23.032L12.792 214.16H12.536V282H0.248V192.4ZM69.123 192.4H83.203V282H69.123V192.4ZM93.748 192.4H114.612C121.865 192.4 127.156 194.107 130.484 197.52C133.812 200.848 135.476 206.011 135.476 213.008V218.512C135.476 227.813 132.404 233.701 126.26 236.176V236.432C129.673 237.456 132.063 239.547 133.428 242.704C134.879 245.861 135.604 250.085 135.604 255.376V271.12C135.604 273.68 135.689 275.771 135.86 277.392C136.031 278.928 136.457 280.464 137.14 282H122.804C122.292 280.549 121.951 279.184 121.78 277.904C121.609 276.624 121.524 274.32 121.524 270.992V254.608C121.524 250.512 120.841 247.653 119.476 246.032C118.196 244.411 115.935 243.6 112.692 243.6H107.828V282H93.748V192.4ZM112.948 230.8C115.764 230.8 117.855 230.075 119.22 228.624C120.671 227.173 121.396 224.741 121.396 221.328V214.416C121.396 211.173 120.799 208.827 119.604 207.376C118.495 205.925 116.703 205.2 114.228 205.2H107.828V230.8H112.948ZM156.253 192.4H175.325L189.917 282H175.837L173.277 264.208V264.464H157.277L154.717 282H141.661L156.253 192.4ZM171.613 252.304L165.341 208.016H165.085L158.941 252.304H171.613ZM196.748 192.4H210.828V282H196.748V192.4Z" fill="#313244"/>
<path opacity="0.6" d="M0.248 141.4H20.344L29.304 205.528H29.56L38.52 141.4H58.616V231H45.304V163.16H45.048L34.808 231H23.032L12.792 163.16H12.536V231H0.248V141.4ZM69.123 141.4H83.203V231H69.123V141.4ZM93.748 141.4H114.612C121.865 141.4 127.156 143.107 130.484 146.52C133.812 149.848 135.476 155.011 135.476 162.008V167.512C135.476 176.813 132.404 182.701 126.26 185.176V185.432C129.673 186.456 132.063 188.547 133.428 191.704C134.879 194.861 135.604 199.085 135.604 204.376V220.12C135.604 222.68 135.689 224.771 135.86 226.392C136.031 227.928 136.457 229.464 137.14 231H122.804C122.292 229.549 121.951 228.184 121.78 226.904C121.609 225.624 121.524 223.32 121.524 219.992V203.608C121.524 199.512 120.841 196.653 119.476 195.032C118.196 193.411 115.935 192.6 112.692 192.6H107.828V231H93.748V141.4ZM112.948 179.8C115.764 179.8 117.855 179.075 119.22 177.624C120.671 176.173 121.396 173.741 121.396 170.328V163.416C121.396 160.173 120.799 157.827 119.604 156.376C118.495 154.925 116.703 154.2 114.228 154.2H107.828V179.8H112.948ZM156.253 141.4H175.325L189.917 231H175.837L173.277 213.208V213.464H157.277L154.717 231H141.661L156.253 141.4ZM171.613 201.304L165.341 157.016H165.085L158.941 201.304H171.613ZM196.748 141.4H210.828V231H196.748V141.4Z" fill="#313244"/>
<path opacity="0.4" d="M0.248 74.4H20.344L29.304 138.528H29.56L38.52 74.4H58.616V164H45.304V96.16H45.048L34.808 164H23.032L12.792 96.16H12.536V164H0.248V74.4ZM69.123 74.4H83.203V164H69.123V74.4ZM93.748 74.4H114.612C121.865 74.4 127.156 76.1067 130.484 79.52C133.812 82.848 135.476 88.0107 135.476 95.008V100.512C135.476 109.813 132.404 115.701 126.26 118.176V118.432C129.673 119.456 132.063 121.547 133.428 124.704C134.879 127.861 135.604 132.085 135.604 137.376V153.12C135.604 155.68 135.689 157.771 135.86 159.392C136.031 160.928 136.457 162.464 137.14 164H122.804C122.292 162.549 121.951 161.184 121.78 159.904C121.609 158.624 121.524 156.32 121.524 152.992V136.608C121.524 132.512 120.841 129.653 119.476 128.032C118.196 126.411 115.935 125.6 112.692 125.6H107.828V164H93.748V74.4ZM112.948 112.8C115.764 112.8 117.855 112.075 119.22 110.624C120.671 109.173 121.396 106.741 121.396 103.328V96.416C121.396 93.1733 120.799 90.8267 119.604 89.376C118.495 87.9253 116.703 87.2 114.228 87.2H107.828V112.8H112.948ZM156.253 74.4H175.325L189.917 164H175.837L173.277 146.208V146.464H157.277L154.717 164H141.661L156.253 74.4ZM171.613 134.304L165.341 90.016H165.085L158.941 134.304H171.613ZM196.748 74.4H210.828V164H196.748V74.4Z" fill="#313244"/>
<path opacity="0.2" d="M0.248 0.399994H20.344L29.304 64.528H29.56L38.52 0.399994H58.616V90H45.304V22.16H45.048L34.808 90H23.032L12.792 22.16H12.536V90H0.248V0.399994ZM69.123 0.399994H83.203V90H69.123V0.399994ZM93.748 0.399994H114.612C121.865 0.399994 127.156 2.10666 130.484 5.52C133.812 8.84799 135.476 14.0107 135.476 21.008V26.512C135.476 35.8133 132.404 41.7013 126.26 44.176V44.432C129.673 45.456 132.063 47.5467 133.428 50.704C134.879 53.8613 135.604 58.0853 135.604 63.376V79.12C135.604 81.68 135.689 83.7707 135.86 85.392C136.031 86.928 136.457 88.464 137.14 90H122.804C122.292 88.5493 121.951 87.184 121.78 85.904C121.609 84.624 121.524 82.32 121.524 78.992V62.608C121.524 58.512 120.841 55.6533 119.476 54.032C118.196 52.4107 115.935 51.6 112.692 51.6H107.828V90H93.748V0.399994ZM112.948 38.8C115.764 38.8 117.855 38.0747 119.22 36.624C120.671 35.1733 121.396 32.7413 121.396 29.328V22.416C121.396 19.1733 120.799 16.8267 119.604 15.376C118.495 13.9253 116.703 13.2 114.228 13.2H107.828V38.8H112.948ZM156.253 0.399994H175.325L189.917 90H175.837L173.277 72.208V72.464H157.277L154.717 90H141.661L156.253 0.399994ZM171.613 60.304L165.341 16.016H165.085L158.941 60.304H171.613ZM196.748 0.399994H210.828V90H196.748V0.399994Z" fill="#313244"/>
</svg>
