<svg width="151" height="93" viewBox="0 0 151 93" fill="none" xmlns="http://www.w3.org/2000/svg">
<path d="M27.3 74.744H0.42V61.944L26.02 1.39999H41.38V61.944H48.036V74.744H41.38V91H27.3V74.744ZM27.3 61.944V27H27.044L13.22 61.944H27.3ZM75.35 92.28C68.438 92.28 63.1473 90.3173 59.478 86.392C55.8087 82.4667 53.974 76.92 53.974 69.752V22.648C53.974 15.48 55.8087 9.93333 59.478 6.008C63.1473 2.08266 68.438 0.119995 75.35 0.119995C82.262 0.119995 87.5527 2.08266 91.222 6.008C94.8913 9.93333 96.726 15.48 96.726 22.648V69.752C96.726 76.92 94.8913 82.4667 91.222 86.392C87.5527 90.3173 82.262 92.28 75.35 92.28ZM75.35 79.48C80.214 79.48 82.646 76.536 82.646 70.648V21.752C82.646 15.864 80.214 12.92 75.35 12.92C70.486 12.92 68.054 15.864 68.054 21.752V70.648C68.054 76.536 70.486 79.48 75.35 79.48ZM129.8 74.744H102.92V61.944L128.52 1.39999H143.88V61.944H150.536V74.744H143.88V91H129.8V74.744ZM129.8 61.944V27H129.544L115.72 61.944H129.8Z" fill="#313244"/>
</svg>
