<svg width="425" height="509" viewBox="0 0 425 509" fill="none" xmlns="http://www.w3.org/2000/svg">
<path d="M21.552 92.28C14.7253 92.28 9.56267 90.36 6.064 86.52C2.56533 82.5947 0.816 77.0053 0.816 69.752V64.632H14.128V70.776C14.128 76.5787 16.56 79.48 21.424 79.48C23.8133 79.48 25.6053 78.7973 26.8 77.432C28.08 75.9813 28.72 73.6773 28.72 70.52C28.72 66.7653 27.8667 63.48 26.16 60.664C24.4533 57.7627 21.296 54.3067 16.688 50.296C10.8853 45.176 6.832 40.568 4.528 36.472C2.224 32.2907 1.072 27.5973 1.072 22.392C1.072 15.3093 2.864 9.848 6.448 6.008C10.032 2.08266 15.2373 0.119995 22.064 0.119995C28.8053 0.119995 33.8827 2.08266 37.296 6.008C40.7947 9.848 42.544 15.3947 42.544 22.648V26.36H29.232V21.752C29.232 18.68 28.6347 16.4613 27.44 15.096C26.2453 13.6453 24.496 12.92 22.192 12.92C17.4987 12.92 15.152 15.7787 15.152 21.496C15.152 24.7387 16.0053 27.768 17.712 30.584C19.504 33.4 22.704 36.8133 27.312 40.824C33.2 45.944 37.2533 50.5947 39.472 54.776C41.6907 58.9573 42.8 63.864 42.8 69.496C42.8 76.8347 40.9653 82.4667 37.296 86.392C33.712 90.3173 28.464 92.28 21.552 92.28ZM71.225 92.28C64.313 92.28 59.0223 90.3173 55.353 86.392C51.6837 82.4667 49.849 76.92 49.849 69.752V22.648C49.849 15.48 51.6837 9.93333 55.353 6.008C59.0223 2.08266 64.313 0.119995 71.225 0.119995C78.137 0.119995 83.4277 2.08266 87.097 6.008C90.7663 9.93333 92.601 15.48 92.601 22.648V69.752C92.601 76.92 90.7663 82.4667 87.097 86.392C83.4277 90.3173 78.137 92.28 71.225 92.28ZM71.225 79.48C76.089 79.48 78.521 76.536 78.521 70.648V21.752C78.521 15.864 76.089 12.92 71.225 12.92C66.361 12.92 63.929 15.864 63.929 21.752V70.648C63.929 76.536 66.361 79.48 71.225 79.48ZM102.123 1.39999H123.371C130.624 1.39999 135.915 3.10666 139.243 6.52C142.571 9.84799 144.235 15.0107 144.235 22.008V25.592C144.235 30.2 143.467 33.9547 141.931 36.856C140.48 39.7573 138.219 41.848 135.147 43.128V43.384C142.144 45.7733 145.643 52.0027 145.643 62.072V69.752C145.643 76.664 143.808 81.9547 140.139 85.624C136.555 89.208 131.264 91 124.267 91H102.123V1.39999ZM121.707 37.88C124.523 37.88 126.614 37.1547 127.979 35.704C129.43 34.2533 130.155 31.8213 130.155 28.408V23.416C130.155 20.1733 129.558 17.8267 128.363 16.376C127.254 14.9253 125.462 14.2 122.987 14.2H116.203V37.88H121.707ZM124.267 78.2C126.742 78.2 128.576 77.56 129.771 76.28C130.966 74.9147 131.563 72.6107 131.563 69.368V61.56C131.563 57.464 130.838 54.648 129.387 53.112C128.022 51.4907 125.718 50.68 122.475 50.68H116.203V78.2H124.267ZM153.873 1.39999H174.737C181.99 1.39999 187.281 3.10666 190.609 6.52C193.937 9.84799 195.601 15.0107 195.601 22.008V27.512C195.601 36.8133 192.529 42.7013 186.385 45.176V45.432C189.798 46.456 192.188 48.5467 193.553 51.704C195.004 54.8613 195.729 59.0853 195.729 64.376V80.12C195.729 82.68 195.814 84.7707 195.985 86.392C196.156 87.928 196.582 89.464 197.265 91H182.929C182.417 89.5493 182.076 88.184 181.905 86.904C181.734 85.624 181.649 83.32 181.649 79.992V63.608C181.649 59.512 180.966 56.6533 179.601 55.032C178.321 53.4107 176.06 52.6 172.817 52.6H167.953V91H153.873V1.39999ZM173.073 39.8C175.889 39.8 177.98 39.0747 179.345 37.624C180.796 36.1733 181.521 33.7413 181.521 30.328V23.416C181.521 20.1733 180.924 17.8267 179.729 16.376C178.62 14.9253 176.828 14.2 174.353 14.2H167.953V39.8H173.073ZM205.498 1.39999H243.898V14.2H219.578V37.88H238.906V50.68H219.578V78.2H243.898V91H205.498V1.39999Z" fill="#CCD0DA"/>
<path d="M272.498 1.39999H292.594L301.554 65.528H301.81L310.77 1.39999H330.866V91H317.554V23.16H317.298L307.058 91H295.282L285.042 23.16H284.786V91H272.498V1.39999ZM341.373 1.39999H355.453V91H341.373V1.39999ZM365.998 1.39999H386.094L395.054 65.528H395.31L404.27 1.39999H424.366V91H411.054V23.16H410.798L400.558 91H388.782L378.542 23.16H378.286V91H365.998V1.39999Z" fill="#BCC0CC"/>
<g opacity="0.8">
<path d="M21.552 196.28C14.7253 196.28 9.56267 194.36 6.064 190.52C2.56533 186.595 0.816 181.005 0.816 173.752V168.632H14.128V174.776C14.128 180.579 16.56 183.48 21.424 183.48C23.8133 183.48 25.6053 182.797 26.8 181.432C28.08 179.981 28.72 177.677 28.72 174.52C28.72 170.765 27.8667 167.48 26.16 164.664C24.4533 161.763 21.296 158.307 16.688 154.296C10.8853 149.176 6.832 144.568 4.528 140.472C2.224 136.291 1.072 131.597 1.072 126.392C1.072 119.309 2.864 113.848 6.448 110.008C10.032 106.083 15.2373 104.12 22.064 104.12C28.8053 104.12 33.8827 106.083 37.296 110.008C40.7947 113.848 42.544 119.395 42.544 126.648V130.36H29.232V125.752C29.232 122.68 28.6347 120.461 27.44 119.096C26.2453 117.645 24.496 116.92 22.192 116.92C17.4987 116.92 15.152 119.779 15.152 125.496C15.152 128.739 16.0053 131.768 17.712 134.584C19.504 137.4 22.704 140.813 27.312 144.824C33.2 149.944 37.2533 154.595 39.472 158.776C41.6907 162.957 42.8 167.864 42.8 173.496C42.8 180.835 40.9653 186.467 37.296 190.392C33.712 194.317 28.464 196.28 21.552 196.28ZM71.225 196.28C64.313 196.28 59.0223 194.317 55.353 190.392C51.6837 186.467 49.849 180.92 49.849 173.752V126.648C49.849 119.48 51.6837 113.933 55.353 110.008C59.0223 106.083 64.313 104.12 71.225 104.12C78.137 104.12 83.4277 106.083 87.097 110.008C90.7663 113.933 92.601 119.48 92.601 126.648V173.752C92.601 180.92 90.7663 186.467 87.097 190.392C83.4277 194.317 78.137 196.28 71.225 196.28ZM71.225 183.48C76.089 183.48 78.521 180.536 78.521 174.648V125.752C78.521 119.864 76.089 116.92 71.225 116.92C66.361 116.92 63.929 119.864 63.929 125.752V174.648C63.929 180.536 66.361 183.48 71.225 183.48ZM102.123 105.4H123.371C130.624 105.4 135.915 107.107 139.243 110.52C142.571 113.848 144.235 119.011 144.235 126.008V129.592C144.235 134.2 143.467 137.955 141.931 140.856C140.48 143.757 138.219 145.848 135.147 147.128V147.384C142.144 149.773 145.643 156.003 145.643 166.072V173.752C145.643 180.664 143.808 185.955 140.139 189.624C136.555 193.208 131.264 195 124.267 195H102.123V105.4ZM121.707 141.88C124.523 141.88 126.614 141.155 127.979 139.704C129.43 138.253 130.155 135.821 130.155 132.408V127.416C130.155 124.173 129.558 121.827 128.363 120.376C127.254 118.925 125.462 118.2 122.987 118.2H116.203V141.88H121.707ZM124.267 182.2C126.742 182.2 128.576 181.56 129.771 180.28C130.966 178.915 131.563 176.611 131.563 173.368V165.56C131.563 161.464 130.838 158.648 129.387 157.112C128.022 155.491 125.718 154.68 122.475 154.68H116.203V182.2H124.267ZM153.873 105.4H174.737C181.99 105.4 187.281 107.107 190.609 110.52C193.937 113.848 195.601 119.011 195.601 126.008V131.512C195.601 140.813 192.529 146.701 186.385 149.176V149.432C189.798 150.456 192.188 152.547 193.553 155.704C195.004 158.861 195.729 163.085 195.729 168.376V184.12C195.729 186.68 195.814 188.771 195.985 190.392C196.156 191.928 196.582 193.464 197.265 195H182.929C182.417 193.549 182.076 192.184 181.905 190.904C181.734 189.624 181.649 187.32 181.649 183.992V167.608C181.649 163.512 180.966 160.653 179.601 159.032C178.321 157.411 176.06 156.6 172.817 156.6H167.953V195H153.873V105.4ZM173.073 143.8C175.889 143.8 177.98 143.075 179.345 141.624C180.796 140.173 181.521 137.741 181.521 134.328V127.416C181.521 124.173 180.924 121.827 179.729 120.376C178.62 118.925 176.828 118.2 174.353 118.2H167.953V143.8H173.073ZM205.498 105.4H243.898V118.2H219.578V141.88H238.906V154.68H219.578V182.2H243.898V195H205.498V105.4Z" fill="#CCD0DA"/>
<path d="M272.498 105.4H292.594L301.554 169.528H301.81L310.77 105.4H330.866V195H317.554V127.16H317.298L307.058 195H295.282L285.042 127.16H284.786V195H272.498V105.4ZM341.373 105.4H355.453V195H341.373V105.4ZM365.998 105.4H386.094L395.054 169.528H395.31L404.27 105.4H424.366V195H411.054V127.16H410.798L400.558 195H388.782L378.542 127.16H378.286V195H365.998V105.4Z" fill="#BCC0CC"/>
</g>
<g opacity="0.6">
<path d="M21.552 300.28C14.7253 300.28 9.56267 298.36 6.064 294.52C2.56533 290.595 0.816 285.005 0.816 277.752V272.632H14.128V278.776C14.128 284.579 16.56 287.48 21.424 287.48C23.8133 287.48 25.6053 286.797 26.8 285.432C28.08 283.981 28.72 281.677 28.72 278.52C28.72 274.765 27.8667 271.48 26.16 268.664C24.4533 265.763 21.296 262.307 16.688 258.296C10.8853 253.176 6.832 248.568 4.528 244.472C2.224 240.291 1.072 235.597 1.072 230.392C1.072 223.309 2.864 217.848 6.448 214.008C10.032 210.083 15.2373 208.12 22.064 208.12C28.8053 208.12 33.8827 210.083 37.296 214.008C40.7947 217.848 42.544 223.395 42.544 230.648V234.36H29.232V229.752C29.232 226.68 28.6347 224.461 27.44 223.096C26.2453 221.645 24.496 220.92 22.192 220.92C17.4987 220.92 15.152 223.779 15.152 229.496C15.152 232.739 16.0053 235.768 17.712 238.584C19.504 241.4 22.704 244.813 27.312 248.824C33.2 253.944 37.2533 258.595 39.472 262.776C41.6907 266.957 42.8 271.864 42.8 277.496C42.8 284.835 40.9653 290.467 37.296 294.392C33.712 298.317 28.464 300.28 21.552 300.28ZM71.225 300.28C64.313 300.28 59.0223 298.317 55.353 294.392C51.6837 290.467 49.849 284.92 49.849 277.752V230.648C49.849 223.48 51.6837 217.933 55.353 214.008C59.0223 210.083 64.313 208.12 71.225 208.12C78.137 208.12 83.4277 210.083 87.097 214.008C90.7663 217.933 92.601 223.48 92.601 230.648V277.752C92.601 284.92 90.7663 290.467 87.097 294.392C83.4277 298.317 78.137 300.28 71.225 300.28ZM71.225 287.48C76.089 287.48 78.521 284.536 78.521 278.648V229.752C78.521 223.864 76.089 220.92 71.225 220.92C66.361 220.92 63.929 223.864 63.929 229.752V278.648C63.929 284.536 66.361 287.48 71.225 287.48ZM102.123 209.4H123.371C130.624 209.4 135.915 211.107 139.243 214.52C142.571 217.848 144.235 223.011 144.235 230.008V233.592C144.235 238.2 143.467 241.955 141.931 244.856C140.48 247.757 138.219 249.848 135.147 251.128V251.384C142.144 253.773 145.643 260.003 145.643 270.072V277.752C145.643 284.664 143.808 289.955 140.139 293.624C136.555 297.208 131.264 299 124.267 299H102.123V209.4ZM121.707 245.88C124.523 245.88 126.614 245.155 127.979 243.704C129.43 242.253 130.155 239.821 130.155 236.408V231.416C130.155 228.173 129.558 225.827 128.363 224.376C127.254 222.925 125.462 222.2 122.987 222.2H116.203V245.88H121.707ZM124.267 286.2C126.742 286.2 128.576 285.56 129.771 284.28C130.966 282.915 131.563 280.611 131.563 277.368V269.56C131.563 265.464 130.838 262.648 129.387 261.112C128.022 259.491 125.718 258.68 122.475 258.68H116.203V286.2H124.267ZM153.873 209.4H174.737C181.99 209.4 187.281 211.107 190.609 214.52C193.937 217.848 195.601 223.011 195.601 230.008V235.512C195.601 244.813 192.529 250.701 186.385 253.176V253.432C189.798 254.456 192.188 256.547 193.553 259.704C195.004 262.861 195.729 267.085 195.729 272.376V288.12C195.729 290.68 195.814 292.771 195.985 294.392C196.156 295.928 196.582 297.464 197.265 299H182.929C182.417 297.549 182.076 296.184 181.905 294.904C181.734 293.624 181.649 291.32 181.649 287.992V271.608C181.649 267.512 180.966 264.653 179.601 263.032C178.321 261.411 176.06 260.6 172.817 260.6H167.953V299H153.873V209.4ZM173.073 247.8C175.889 247.8 177.98 247.075 179.345 245.624C180.796 244.173 181.521 241.741 181.521 238.328V231.416C181.521 228.173 180.924 225.827 179.729 224.376C178.62 222.925 176.828 222.2 174.353 222.2H167.953V247.8H173.073ZM205.498 209.4H243.898V222.2H219.578V245.88H238.906V258.68H219.578V286.2H243.898V299H205.498V209.4Z" fill="#CCD0DA"/>
<path d="M272.498 209.4H292.594L301.554 273.528H301.81L310.77 209.4H330.866V299H317.554V231.16H317.298L307.058 299H295.282L285.042 231.16H284.786V299H272.498V209.4ZM341.373 209.4H355.453V299H341.373V209.4ZM365.998 209.4H386.094L395.054 273.528H395.31L404.27 209.4H424.366V299H411.054V231.16H410.798L400.558 299H388.782L378.542 231.16H378.286V299H365.998V209.4Z" fill="#BCC0CC"/>
</g>
<g opacity="0.4">
<path d="M21.552 404.28C14.7253 404.28 9.56267 402.36 6.064 398.52C2.56533 394.595 0.816 389.005 0.816 381.752V376.632H14.128V382.776C14.128 388.579 16.56 391.48 21.424 391.48C23.8133 391.48 25.6053 390.797 26.8 389.432C28.08 387.981 28.72 385.677 28.72 382.52C28.72 378.765 27.8667 375.48 26.16 372.664C24.4533 369.763 21.296 366.307 16.688 362.296C10.8853 357.176 6.832 352.568 4.528 348.472C2.224 344.291 1.072 339.597 1.072 334.392C1.072 327.309 2.864 321.848 6.448 318.008C10.032 314.083 15.2373 312.12 22.064 312.12C28.8053 312.12 33.8827 314.083 37.296 318.008C40.7947 321.848 42.544 327.395 42.544 334.648V338.36H29.232V333.752C29.232 330.68 28.6347 328.461 27.44 327.096C26.2453 325.645 24.496 324.92 22.192 324.92C17.4987 324.92 15.152 327.779 15.152 333.496C15.152 336.739 16.0053 339.768 17.712 342.584C19.504 345.4 22.704 348.813 27.312 352.824C33.2 357.944 37.2533 362.595 39.472 366.776C41.6907 370.957 42.8 375.864 42.8 381.496C42.8 388.835 40.9653 394.467 37.296 398.392C33.712 402.317 28.464 404.28 21.552 404.28ZM71.225 404.28C64.313 404.28 59.0223 402.317 55.353 398.392C51.6837 394.467 49.849 388.92 49.849 381.752V334.648C49.849 327.48 51.6837 321.933 55.353 318.008C59.0223 314.083 64.313 312.12 71.225 312.12C78.137 312.12 83.4277 314.083 87.097 318.008C90.7663 321.933 92.601 327.48 92.601 334.648V381.752C92.601 388.92 90.7663 394.467 87.097 398.392C83.4277 402.317 78.137 404.28 71.225 404.28ZM71.225 391.48C76.089 391.48 78.521 388.536 78.521 382.648V333.752C78.521 327.864 76.089 324.92 71.225 324.92C66.361 324.92 63.929 327.864 63.929 333.752V382.648C63.929 388.536 66.361 391.48 71.225 391.48ZM102.123 313.4H123.371C130.624 313.4 135.915 315.107 139.243 318.52C142.571 321.848 144.235 327.011 144.235 334.008V337.592C144.235 342.2 143.467 345.955 141.931 348.856C140.48 351.757 138.219 353.848 135.147 355.128V355.384C142.144 357.773 145.643 364.003 145.643 374.072V381.752C145.643 388.664 143.808 393.955 140.139 397.624C136.555 401.208 131.264 403 124.267 403H102.123V313.4ZM121.707 349.88C124.523 349.88 126.614 349.155 127.979 347.704C129.43 346.253 130.155 343.821 130.155 340.408V335.416C130.155 332.173 129.558 329.827 128.363 328.376C127.254 326.925 125.462 326.2 122.987 326.2H116.203V349.88H121.707ZM124.267 390.2C126.742 390.2 128.576 389.56 129.771 388.28C130.966 386.915 131.563 384.611 131.563 381.368V373.56C131.563 369.464 130.838 366.648 129.387 365.112C128.022 363.491 125.718 362.68 122.475 362.68H116.203V390.2H124.267ZM153.873 313.4H174.737C181.99 313.4 187.281 315.107 190.609 318.52C193.937 321.848 195.601 327.011 195.601 334.008V339.512C195.601 348.813 192.529 354.701 186.385 357.176V357.432C189.798 358.456 192.188 360.547 193.553 363.704C195.004 366.861 195.729 371.085 195.729 376.376V392.12C195.729 394.68 195.814 396.771 195.985 398.392C196.156 399.928 196.582 401.464 197.265 403H182.929C182.417 401.549 182.076 400.184 181.905 398.904C181.734 397.624 181.649 395.32 181.649 391.992V375.608C181.649 371.512 180.966 368.653 179.601 367.032C178.321 365.411 176.06 364.6 172.817 364.6H167.953V403H153.873V313.4ZM173.073 351.8C175.889 351.8 177.98 351.075 179.345 349.624C180.796 348.173 181.521 345.741 181.521 342.328V335.416C181.521 332.173 180.924 329.827 179.729 328.376C178.62 326.925 176.828 326.2 174.353 326.2H167.953V351.8H173.073ZM205.498 313.4H243.898V326.2H219.578V349.88H238.906V362.68H219.578V390.2H243.898V403H205.498V313.4Z" fill="#CCD0DA"/>
<path d="M272.498 313.4H292.594L301.554 377.528H301.81L310.77 313.4H330.866V403H317.554V335.16H317.298L307.058 403H295.282L285.042 335.16H284.786V403H272.498V313.4ZM341.373 313.4H355.453V403H341.373V313.4ZM365.998 313.4H386.094L395.054 377.528H395.31L404.27 313.4H424.366V403H411.054V335.16H410.798L400.558 403H388.782L378.542 335.16H378.286V403H365.998V313.4Z" fill="#BCC0CC"/>
</g>
<g opacity="0.2">
<path d="M21.552 508.28C14.7253 508.28 9.56267 506.36 6.064 502.52C2.56533 498.595 0.816 493.005 0.816 485.752V480.632H14.128V486.776C14.128 492.579 16.56 495.48 21.424 495.48C23.8133 495.48 25.6053 494.797 26.8 493.432C28.08 491.981 28.72 489.677 28.72 486.52C28.72 482.765 27.8667 479.48 26.16 476.664C24.4533 473.763 21.296 470.307 16.688 466.296C10.8853 461.176 6.832 456.568 4.528 452.472C2.224 448.291 1.072 443.597 1.072 438.392C1.072 431.309 2.864 425.848 6.448 422.008C10.032 418.083 15.2373 416.12 22.064 416.12C28.8053 416.12 33.8827 418.083 37.296 422.008C40.7947 425.848 42.544 431.395 42.544 438.648V442.36H29.232V437.752C29.232 434.68 28.6347 432.461 27.44 431.096C26.2453 429.645 24.496 428.92 22.192 428.92C17.4987 428.92 15.152 431.779 15.152 437.496C15.152 440.739 16.0053 443.768 17.712 446.584C19.504 449.4 22.704 452.813 27.312 456.824C33.2 461.944 37.2533 466.595 39.472 470.776C41.6907 474.957 42.8 479.864 42.8 485.496C42.8 492.835 40.9653 498.467 37.296 502.392C33.712 506.317 28.464 508.28 21.552 508.28ZM71.225 508.28C64.313 508.28 59.0223 506.317 55.353 502.392C51.6837 498.467 49.849 492.92 49.849 485.752V438.648C49.849 431.48 51.6837 425.933 55.353 422.008C59.0223 418.083 64.313 416.12 71.225 416.12C78.137 416.12 83.4277 418.083 87.097 422.008C90.7663 425.933 92.601 431.48 92.601 438.648V485.752C92.601 492.92 90.7663 498.467 87.097 502.392C83.4277 506.317 78.137 508.28 71.225 508.28ZM71.225 495.48C76.089 495.48 78.521 492.536 78.521 486.648V437.752C78.521 431.864 76.089 428.92 71.225 428.92C66.361 428.92 63.929 431.864 63.929 437.752V486.648C63.929 492.536 66.361 495.48 71.225 495.48ZM102.123 417.4H123.371C130.624 417.4 135.915 419.107 139.243 422.52C142.571 425.848 144.235 431.011 144.235 438.008V441.592C144.235 446.2 143.467 449.955 141.931 452.856C140.48 455.757 138.219 457.848 135.147 459.128V459.384C142.144 461.773 145.643 468.003 145.643 478.072V485.752C145.643 492.664 143.808 497.955 140.139 501.624C136.555 505.208 131.264 507 124.267 507H102.123V417.4ZM121.707 453.88C124.523 453.88 126.614 453.155 127.979 451.704C129.43 450.253 130.155 447.821 130.155 444.408V439.416C130.155 436.173 129.558 433.827 128.363 432.376C127.254 430.925 125.462 430.2 122.987 430.2H116.203V453.88H121.707ZM124.267 494.2C126.742 494.2 128.576 493.56 129.771 492.28C130.966 490.915 131.563 488.611 131.563 485.368V477.56C131.563 473.464 130.838 470.648 129.387 469.112C128.022 467.491 125.718 466.68 122.475 466.68H116.203V494.2H124.267ZM153.873 417.4H174.737C181.99 417.4 187.281 419.107 190.609 422.52C193.937 425.848 195.601 431.011 195.601 438.008V443.512C195.601 452.813 192.529 458.701 186.385 461.176V461.432C189.798 462.456 192.188 464.547 193.553 467.704C195.004 470.861 195.729 475.085 195.729 480.376V496.12C195.729 498.68 195.814 500.771 195.985 502.392C196.156 503.928 196.582 505.464 197.265 507H182.929C182.417 505.549 182.076 504.184 181.905 502.904C181.734 501.624 181.649 499.32 181.649 495.992V479.608C181.649 475.512 180.966 472.653 179.601 471.032C178.321 469.411 176.06 468.6 172.817 468.6H167.953V507H153.873V417.4ZM173.073 455.8C175.889 455.8 177.98 455.075 179.345 453.624C180.796 452.173 181.521 449.741 181.521 446.328V439.416C181.521 436.173 180.924 433.827 179.729 432.376C178.62 430.925 176.828 430.2 174.353 430.2H167.953V455.8H173.073ZM205.498 417.4H243.898V430.2H219.578V453.88H238.906V466.68H219.578V494.2H243.898V507H205.498V417.4Z" fill="#CCD0DA"/>
<path d="M272.498 417.4H292.594L301.554 481.528H301.81L310.77 417.4H330.866V507H317.554V439.16H317.298L307.058 507H295.282L285.042 439.16H284.786V507H272.498V417.4ZM341.373 417.4H355.453V507H341.373V417.4ZM365.998 417.4H386.094L395.054 481.528H395.31L404.27 417.4H424.366V507H411.054V439.16H410.798L400.558 507H388.782L378.542 439.16H378.286V507H365.998V417.4Z" fill="#BCC0CC"/>
</g>
</svg>
