<svg width="425" height="93" viewBox="0 0 425 93" fill="none" xmlns="http://www.w3.org/2000/svg">
<path d="M21.552 92.28C14.7253 92.28 9.56267 90.36 6.064 86.52C2.56533 82.5947 0.816 77.0053 0.816 69.752V64.632H14.128V70.776C14.128 76.5787 16.56 79.48 21.424 79.48C23.8133 79.48 25.6053 78.7973 26.8 77.432C28.08 75.9813 28.72 73.6773 28.72 70.52C28.72 66.7653 27.8667 63.48 26.16 60.664C24.4533 57.7627 21.296 54.3067 16.688 50.296C10.8853 45.176 6.832 40.568 4.528 36.472C2.224 32.2907 1.072 27.5973 1.072 22.392C1.072 15.3093 2.864 9.848 6.448 6.008C10.032 2.08266 15.2373 0.119995 22.064 0.119995C28.8053 0.119995 33.8827 2.08266 37.296 6.008C40.7947 9.848 42.544 15.3947 42.544 22.648V26.36H29.232V21.752C29.232 18.68 28.6347 16.4613 27.44 15.096C26.2453 13.6453 24.496 12.92 22.192 12.92C17.4987 12.92 15.152 15.7787 15.152 21.496C15.152 24.7387 16.0053 27.768 17.712 30.584C19.504 33.4 22.704 36.8133 27.312 40.824C33.2 45.944 37.2533 50.5947 39.472 54.776C41.6907 58.9573 42.8 63.864 42.8 69.496C42.8 76.8347 40.9653 82.4667 37.296 86.392C33.712 90.3173 28.464 92.28 21.552 92.28ZM71.225 92.28C64.313 92.28 59.0223 90.3173 55.353 86.392C51.6837 82.4667 49.849 76.92 49.849 69.752V22.648C49.849 15.48 51.6837 9.93333 55.353 6.008C59.0223 2.08266 64.313 0.119995 71.225 0.119995C78.137 0.119995 83.4277 2.08266 87.097 6.008C90.7663 9.93333 92.601 15.48 92.601 22.648V69.752C92.601 76.92 90.7663 82.4667 87.097 86.392C83.4277 90.3173 78.137 92.28 71.225 92.28ZM71.225 79.48C76.089 79.48 78.521 76.536 78.521 70.648V21.752C78.521 15.864 76.089 12.92 71.225 12.92C66.361 12.92 63.929 15.864 63.929 21.752V70.648C63.929 76.536 66.361 79.48 71.225 79.48ZM102.123 1.39999H123.371C130.624 1.39999 135.915 3.10666 139.243 6.52C142.571 9.84799 144.235 15.0107 144.235 22.008V25.592C144.235 30.2 143.467 33.9547 141.931 36.856C140.48 39.7573 138.219 41.848 135.147 43.128V43.384C142.144 45.7733 145.643 52.0027 145.643 62.072V69.752C145.643 76.664 143.808 81.9547 140.139 85.624C136.555 89.208 131.264 91 124.267 91H102.123V1.39999ZM121.707 37.88C124.523 37.88 126.614 37.1547 127.979 35.704C129.43 34.2533 130.155 31.8213 130.155 28.408V23.416C130.155 20.1733 129.558 17.8267 128.363 16.376C127.254 14.9253 125.462 14.2 122.987 14.2H116.203V37.88H121.707ZM124.267 78.2C126.742 78.2 128.576 77.56 129.771 76.28C130.966 74.9147 131.563 72.6107 131.563 69.368V61.56C131.563 57.464 130.838 54.648 129.387 53.112C128.022 51.4907 125.718 50.68 122.475 50.68H116.203V78.2H124.267ZM153.873 1.39999H174.737C181.99 1.39999 187.281 3.10666 190.609 6.52C193.937 9.84799 195.601 15.0107 195.601 22.008V27.512C195.601 36.8133 192.529 42.7013 186.385 45.176V45.432C189.798 46.456 192.188 48.5467 193.553 51.704C195.004 54.8613 195.729 59.0853 195.729 64.376V80.12C195.729 82.68 195.814 84.7707 195.985 86.392C196.156 87.928 196.582 89.464 197.265 91H182.929C182.417 89.5493 182.076 88.184 181.905 86.904C181.734 85.624 181.649 83.32 181.649 79.992V63.608C181.649 59.512 180.966 56.6533 179.601 55.032C178.321 53.4107 176.06 52.6 172.817 52.6H167.953V91H153.873V1.39999ZM173.073 39.8C175.889 39.8 177.98 39.0747 179.345 37.624C180.796 36.1733 181.521 33.7413 181.521 30.328V23.416C181.521 20.1733 180.924 17.8267 179.729 16.376C178.62 14.9253 176.828 14.2 174.353 14.2H167.953V39.8H173.073ZM205.498 1.39999H243.898V14.2H219.578V37.88H238.906V50.68H219.578V78.2H243.898V91H205.498V1.39999Z" fill="#3B4252"/>
<path d="M272.498 1.39999H292.594L301.554 65.528H301.81L310.77 1.39999H330.866V91H317.554V23.16H317.298L307.058 91H295.282L285.042 23.16H284.786V91H272.498V1.39999ZM341.373 1.39999H355.453V91H341.373V1.39999ZM365.998 1.39999H386.094L395.054 65.528H395.31L404.27 1.39999H424.366V91H411.054V23.16H410.798L400.558 91H388.782L378.542 23.16H378.286V91H365.998V1.39999Z" fill="#4C566A"/>
</svg>
