<svg width="211" height="90" viewBox="0 0 211 90" fill="none" xmlns="http://www.w3.org/2000/svg">
<path d="M0.248 0.399994H20.344L29.304 64.528H29.56L38.52 0.399994H58.616V90H45.304V22.16H45.048L34.808 90H23.032L12.792 22.16H12.536V90H0.248V0.399994ZM69.123 0.399994H83.203V90H69.123V0.399994ZM93.748 0.399994H114.612C121.865 0.399994 127.156 2.10666 130.484 5.52C133.812 8.84799 135.476 14.0107 135.476 21.008V26.512C135.476 35.8133 132.404 41.7013 126.26 44.176V44.432C129.673 45.456 132.063 47.5467 133.428 50.704C134.879 53.8613 135.604 58.0853 135.604 63.376V79.12C135.604 81.68 135.689 83.7707 135.86 85.392C136.031 86.928 136.457 88.464 137.14 90H122.804C122.292 88.5493 121.951 87.184 121.78 85.904C121.609 84.624 121.524 82.32 121.524 78.992V62.608C121.524 58.512 120.841 55.6533 119.476 54.032C118.196 52.4107 115.935 51.6 112.692 51.6H107.828V90H93.748V0.399994ZM112.948 38.8C115.764 38.8 117.855 38.0747 119.22 36.624C120.671 35.1733 121.396 32.7413 121.396 29.328V22.416C121.396 19.1733 120.799 16.8267 119.604 15.376C118.495 13.9253 116.703 13.2 114.228 13.2H107.828V38.8H112.948ZM156.253 0.399994H175.325L189.917 90H175.837L173.277 72.208V72.464H157.277L154.717 90H141.661L156.253 0.399994ZM171.613 60.304L165.341 16.016H165.085L158.941 60.304H171.613ZM196.748 0.399994H210.828V90H196.748V0.399994Z" fill="#3B4252"/>
</svg>
